{
 "cells": [
  {
   "cell_type": "markdown",
   "id": "0b9f3a6a",
   "metadata": {},
   "source": [
    "## subprocess is used to execute command-line programs or tools that handle the actual conversion of video files. json, for our text file generator and os is used for paths and directory related tasks of the program"
   ]
  },
  {
   "cell_type": "code",
   "execution_count": 14,
   "id": "8823f1c3",
   "metadata": {},
   "outputs": [],
   "source": [
    "import subprocess\n",
    "import json\n",
    "import os"
   ]
  },
  {
   "cell_type": "markdown",
   "id": "ccdc8862",
   "metadata": {},
   "source": [
    "### this cell contains a function to get the information of videos"
   ]
  },
  {
   "cell_type": "markdown",
   "id": "11796fb3",
   "metadata": {},
   "source": [
    "#### inputs that are our points in this cell are video codec, resolution, frame rate, aspect ratio, video bitrate(bitrate), duration, and so on; and as you suggested these are not required specifications but details of videos"
   ]
  },
  {
   "cell_type": "code",
   "execution_count": 15,
   "id": "29fa46ce",
   "metadata": {},
   "outputs": [],
   "source": [
    "def get_video_info(file_path):\n",
    "    cmd = [\"ffprobe\", \"-v\", \"error\", \"-show_format\", \"-show_streams\", \"-print_format\", \"json\", file_path]\n",
    "    result = subprocess.Popen(cmd, stdout=subprocess.PIPE, stderr=subprocess.PIPE)\n",
    "    output, error = result.communicate()\n",
    "    if error:\n",
    "        raise Exception(f\"Error occurred: {error.decode('utf-8')}\")\n",
    "\n",
    "    return json.loads(output)"
   ]
  },
  {
   "cell_type": "markdown",
   "id": "fb986e0a",
   "metadata": {},
   "source": [
    "### this cell contains a function to write our text file of the project"
   ]
  },
  {
   "cell_type": "markdown",
   "id": "b9580763",
   "metadata": {},
   "source": [
    "#### The text file contains our wrong format columns of attributes related to our project; so as the documentation of exercise specifies, we write the text file in this cell"
   ]
  },
  {
   "cell_type": "code",
   "execution_count": 21,
   "id": "fbcf2349",
   "metadata": {},
   "outputs": [],
   "source": [
    "def write_report(D, file, report_file):\n",
    " with open(report_file, 'w') as f:\n",
    "     if D:\n",
    "         f.write(\"Hey there!\\nAs you specified in the documentation, here are your wrong format cells!\\nIn the notebook we dealt with the problem using required formats using interesting functions ;))\\nFilms with incorrect format:\\n\")\n",
    "     for file, fields in zip(file, D):\n",
    "         f.write(f\"{file}: {fields}\\n\")"
   ]
  },
  {
   "cell_type": "markdown",
   "id": "7c88a61a",
   "metadata": {},
   "source": [
    "### this cell is to define a file format and folder path"
   ]
  },
  {
   "cell_type": "markdown",
   "id": "22be78fa",
   "metadata": {},
   "source": [
    "#### Report file text specifies our file format and folder path is related to the place that we keep our videos in there!"
   ]
  },
  {
   "cell_type": "code",
   "execution_count": 22,
   "id": "96173efc",
   "metadata": {},
   "outputs": [],
   "source": [
    "report_file=\"format_check_report.txt\"\n",
    "folder_path = \"Films\"\n",
    "D=[]"
   ]
  },
  {
   "cell_type": "markdown",
   "id": "6ddce945",
   "metadata": {},
   "source": [
    "#### The cell contains main functions of the exercise: at first it starts with defining problematic fields and then continues with  iterating through all of the videos, and goes on with extracting video info streams list's attributes and at the end of the cell it compares our video informations with required format that is specified by the festival; "
   ]
  },
  {
   "cell_type": "markdown",
   "id": "0b2e1dbb",
   "metadata": {},
   "source": [
    "### so as the documentation requires we append our properties of each video to a list, and at last we write them in our text file in the following cells "
   ]
  },
  {
   "cell_type": "code",
   "execution_count": 23,
   "id": "bade2667",
   "metadata": {},
   "outputs": [
    {
     "name": "stdout",
     "output_type": "stream",
     "text": [
      "Cosmos_War_of_the_Planets.mp4\n",
      "Video codec: h264\n",
      "Resolution: 628 x 354\n",
      "Frame rate: 30000/1001\n",
      "Aspect ratio: 314:177\n",
      "Video bitrate: 2989377\n",
      "Duration: 20.053333\n",
      "Video format:.mp4\n",
      "Cosmos_War_of_the_Planets_formatOK.mp4\n",
      "Video codec: h264\n",
      "Resolution: 640 x 360\n",
      "Frame rate: 25/1\n",
      "Aspect ratio: 314:177\n",
      "Video bitrate: 1986296\n",
      "Duration: 20.080000\n",
      "Video format:.mp4\n",
      "The_Hill_Gang_Rides_Again.mp4\n",
      "Video codec: h264\n",
      "Resolution: 640 x 360\n",
      "Frame rate: 25/1\n",
      "Aspect ratio: 16:9\n",
      "Video bitrate: 7537730\n",
      "Duration: 20.038822\n",
      "Video format:.mp4\n",
      "Last_man_on_earth_1964_formatOK.mp4\n",
      "Video codec: h264\n",
      "Resolution: 640 x 360\n",
      "Frame rate: 25/1\n",
      "Aspect ratio: 16:9\n",
      "Video bitrate: 2088757\n",
      "Duration: 20.020000\n",
      "Video format:.mp4\n",
      "The_Gun_and_the_Pulpit.avi\n",
      "Video codec: rawvideo\n",
      "Resolution: 720 x 404\n",
      "Frame rate: 25/1\n",
      "Aspect ratio: N/A\n",
      "Video bitrate: 87438878\n",
      "Duration: 20.000000\n",
      "Video format:.avi\n",
      "The_Gun_and_the_Pulpit_formatOK.mp4\n",
      "Video codec: h264\n",
      "Resolution: 640 x 360\n",
      "Frame rate: 25/1\n",
      "Aspect ratio: N/A\n",
      "Video bitrate: 1914278\n",
      "Duration: 20.000000\n",
      "Video format:.mp4\n",
      "Voyage_to_the_Planet_of_Prehistoric_Women.mp4\n",
      "Video codec: hevc\n",
      "Resolution: 640 x 360\n",
      "Frame rate: 30000/1001\n",
      "Aspect ratio: 16:9\n",
      "Video bitrate: 8038857\n",
      "Duration: 20.088000\n",
      "Video format:.mp4\n",
      "Voyage_to_the_Planet_of_Prehistoric_Women_formatOK.mp4\n",
      "Video codec: h264\n",
      "Resolution: 640 x 360\n",
      "Frame rate: 25/1\n",
      "Aspect ratio: 16:9\n",
      "Video bitrate: 1902190\n",
      "Duration: 20.080000\n",
      "Video format:.mp4\n",
      "The_Hill_Gang_Rides_Again_formatOK.mp4\n",
      "Video codec: h264\n",
      "Resolution: 640 x 360\n",
      "Frame rate: 25/1\n",
      "Aspect ratio: 16:9\n",
      "Video bitrate: 1983407\n",
      "Duration: 20.016000\n",
      "Video format:.mp4\n",
      "Last_man_on_earth_1964.mov\n",
      "Video codec: prores\n",
      "Resolution: 640 x 360\n",
      "Frame rate: 24000/1001\n",
      "Aspect ratio: 16:9\n",
      "Video bitrate: 9285191\n",
      "Duration: 20.020000\n",
      "Video format:.mov\n"
     ]
    }
   ],
   "source": [
    "for filename in os.listdir(folder_path):\n",
    "    problematic_fields = {}\n",
    "    file_path = os.path.join(folder_path, filename)\n",
    "    if os.path.isfile(file_path):\n",
    "        video_info = get_video_info(file_path)\n",
    "        for stream in video_info[\"streams\"]:\n",
    "            if stream[\"codec_type\"] == \"video\":   \n",
    "            \n",
    "                print(filename)\n",
    "                print(\"Video codec:\", stream[\"codec_name\"])\n",
    "                a = stream[\"codec_name\"]\n",
    "                print(\"Resolution:\", stream[\"width\"], \"x\", stream[\"height\"])\n",
    "                b = (stream[\"width\"],\"x\",stream[\"height\"])\n",
    "                print(\"Frame rate:\", stream[\"r_frame_rate\"])\n",
    "                c = stream[\"r_frame_rate\"]\n",
    "                print(\"Aspect ratio:\", stream.get(\"display_aspect_ratio\", \"N/A\"))\n",
    "                d = stream.get(\"display_aspect_ratio\", \"N/A\")\n",
    "                print(\"Video bitrate:\", stream.get(\"bit_rate\", \"N/A\"))\n",
    "                e = stream.get(\"bit_rate\", \"N/A\")\n",
    "                    # Now you can access different information about the video\n",
    "                print(\"Duration:\", video_info[\"format\"][\"duration\"])\n",
    "                f = video_info[\"format\"][\"duration\"]\n",
    "                if filename.endswith((\".mp4\")):\n",
    "                    print(\"Video format:\"+\".mp4\")\n",
    "                    g = \".mp4\"\n",
    "                if filename.endswith((\".avi\")):\n",
    "                    print(\"Video format:\"+\".avi\")\n",
    "                    g = \".avi\"\n",
    "                if filename.endswith((\".mov\")):\n",
    "                    print(\"Video format:\"+\".mov\")\n",
    "                    g = \".mov\"\n",
    "\n",
    "                h = stream[\"width\"] + stream[\"height\"]\n",
    "\n",
    "        if 2==2:\n",
    "            problematic_fields[\"video_name\"]=filename\n",
    "        if a != 'h264':\n",
    "            problematic_fields[\"video_codec\"]=a\n",
    "        if h != 1000:\n",
    "            problematic_fields[\"resolution\"] = b\n",
    "        if c != 25:\n",
    "            problematic_fields[\"frame_rate\"]= c\n",
    "        if d != '16:9':\n",
    "            problematic_fields[\"aspect_ratio\"] =d\n",
    "        if int(e) < 2000000 or int(e) > 5000000:\n",
    "            problematic_fields[\"video_bitrate\"]= e \n",
    "        if g != '.mp4':\n",
    "            problematic_fields[\"video_Format\"]= g\n",
    "        D.append(problematic_fields)\n"
   ]
  },
  {
   "cell_type": "markdown",
   "id": "c741c803",
   "metadata": {},
   "source": [
    "### this cell generates our report of the prgram in .txt format; so this cell is just a text writer and the main function of this cell was written in the cells above!"
   ]
  },
  {
   "cell_type": "code",
   "execution_count": 24,
   "id": "afa0e5c3",
   "metadata": {},
   "outputs": [],
   "source": [
    "file= [1,2,3,4,5]\n",
    "write_report(D,file, report_file)\n",
    "# Iterate through the film files\n",
    "extracted_dir =\"Films\""
   ]
  },
  {
   "cell_type": "markdown",
   "id": "6cc5f40d",
   "metadata": {},
   "source": [
    "## Finally this cell converts our files to the files with -formatOK and adjusts attributes of each file the convertion of the files is done based on the attributes of each file; and all of the proccess is on the field of the documentation"
   ]
  },
  {
   "cell_type": "code",
   "execution_count": 20,
   "id": "2be54717",
   "metadata": {},
   "outputs": [
    {
     "name": "stderr",
     "output_type": "stream",
     "text": [
      "ffmpeg version 4.4.2-0ubuntu0.22.04.1 Copyright (c) 2000-2021 the FFmpeg developers\n",
      "  built with gcc 11 (Ubuntu 11.2.0-19ubuntu1)\n",
      "  configuration: --prefix=/usr --extra-version=0ubuntu0.22.04.1 --toolchain=hardened --libdir=/usr/lib/x86_64-linux-gnu --incdir=/usr/include/x86_64-linux-gnu --arch=amd64 --enable-gpl --disable-stripping --enable-gnutls --enable-ladspa --enable-libaom --enable-libass --enable-libbluray --enable-libbs2b --enable-libcaca --enable-libcdio --enable-libcodec2 --enable-libdav1d --enable-libflite --enable-libfontconfig --enable-libfreetype --enable-libfribidi --enable-libgme --enable-libgsm --enable-libjack --enable-libmp3lame --enable-libmysofa --enable-libopenjpeg --enable-libopenmpt --enable-libopus --enable-libpulse --enable-librabbitmq --enable-librubberband --enable-libshine --enable-libsnappy --enable-libsoxr --enable-libspeex --enable-libsrt --enable-libssh --enable-libtheora --enable-libtwolame --enable-libvidstab --enable-libvorbis --enable-libvpx --enable-libwebp --enable-libx265 --enable-libxml2 --enable-libxvid --enable-libzimg --enable-libzmq --enable-libzvbi --enable-lv2 --enable-omx --enable-openal --enable-opencl --enable-opengl --enable-sdl2 --enable-pocketsphinx --enable-librsvg --enable-libmfx --enable-libdc1394 --enable-libdrm --enable-libiec61883 --enable-chromaprint --enable-frei0r --enable-libx264 --enable-shared\n",
      "  libavutil      56. 70.100 / 56. 70.100\n",
      "  libavcodec     58.134.100 / 58.134.100\n",
      "  libavformat    58. 76.100 / 58. 76.100\n",
      "  libavdevice    58. 13.100 / 58. 13.100\n",
      "  libavfilter     7.110.100 /  7.110.100\n",
      "  libswscale      5.  9.100 /  5.  9.100\n",
      "  libswresample   3.  9.100 /  3.  9.100\n",
      "  libpostproc    55.  9.100 / 55.  9.100\n",
      "Input #0, mov,mp4,m4a,3gp,3g2,mj2, from 'Films/Cosmos_War_of_the_Planets.mp4':\n",
      "  Metadata:\n",
      "    major_brand     : mp42\n",
      "    minor_version   : 0\n",
      "    compatible_brands: mp42mp41\n",
      "    creation_time   : 2021-08-02T19:15:48.000000Z\n",
      "  Duration: 00:00:20.05, start: 0.000000, bitrate: 3309 kb/s\n",
      "  Stream #0:0(eng): Video: h264 (Main) (avc1 / 0x31637661), yuv420p, 628x354 [SAR 1:1 DAR 314:177], 2989 kb/s, 29.97 fps, 29.97 tbr, 30k tbn, 59.94 tbc (default)\n",
      "    Metadata:\n",
      "      creation_time   : 2021-08-02T19:15:48.000000Z\n",
      "      handler_name    : ?Mainconcept Video Media Handler\n",
      "      vendor_id       : [0][0][0][0]\n",
      "      encoder         : AVC Coding\n",
      "  Stream #0:1(eng): Audio: aac (LC) (mp4a / 0x6134706D), 48000 Hz, stereo, fltp, 317 kb/s (default)\n",
      "    Metadata:\n",
      "      creation_time   : 2021-08-02T19:15:48.000000Z\n",
      "      handler_name    : #Mainconcept MP4 Sound Media Handler\n",
      "      vendor_id       : [0][0][0][0]\n",
      "Stream mapping:\n",
      "  Stream #0:0 -> #0:0 (h264 (native) -> h264 (libx264))\n",
      "  Stream #0:1 -> #0:1 (aac (native) -> aac (native))\n",
      "Press [q] to stop, [?] for help\n",
      "[libx264 @ 0x555738a763c0] using SAR=471/472\n",
      "[libx264 @ 0x555738a763c0] using cpu capabilities: MMX2 SSE2Fast SSSE3 SSE4.2 AVX FMA3 BMI2 AVX2\n",
      "[libx264 @ 0x555738a763c0] profile High, level 3.0, 4:2:0, 8-bit\n",
      "[libx264 @ 0x555738a763c0] 264 - core 163 r3060 5db6aa6 - H.264/MPEG-4 AVC codec - Copyleft 2003-2021 - http://www.videolan.org/x264.html - options: cabac=1 ref=3 deblock=1:0:0 analyse=0x3:0x113 me=hex subme=7 psy=1 psy_rd=1.00:0.00 mixed_ref=1 me_range=16 chroma_me=1 trellis=1 8x8dct=1 cqm=0 deadzone=21,11 fast_pskip=1 chroma_qp_offset=-2 threads=11 lookahead_threads=1 sliced_threads=0 nr=0 decimate=1 interlaced=0 bluray_compat=0 constrained_intra=0 bframes=3 b_pyramid=2 b_adapt=1 b_bias=0 direct=1 weightb=1 open_gop=0 weightp=2 keyint=250 keyint_min=25 scenecut=40 intra_refresh=0 rc_lookahead=40 rc=abr mbtree=1 bitrate=2000 ratetol=1.0 qcomp=0.60 qpmin=0 qpmax=69 qpstep=4 ip_ratio=1.40 aq=1:1.00\n",
      "Output #0, mp4, to 'Films/Cosmos_War_of_the_Planets_formatOK.mp4':\n",
      "  Metadata:\n",
      "    major_brand     : mp42\n",
      "    minor_version   : 0\n",
      "    compatible_brands: mp42mp41\n",
      "    encoder         : Lavf58.76.100\n",
      "  Stream #0:0(eng): Video: h264 (avc1 / 0x31637661), yuv420p(tv, progressive), 640x360 [SAR 471:472 DAR 314:177], q=2-31, 2000 kb/s, 25 fps, 12800 tbn (default)\n",
      "    Metadata:\n",
      "      creation_time   : 2021-08-02T19:15:48.000000Z\n",
      "      handler_name    : ?Mainconcept Video Media Handler\n",
      "      vendor_id       : [0][0][0][0]\n",
      "      encoder         : Lavc58.134.100 libx264\n",
      "    Side data:\n",
      "      cpb: bitrate max/min/avg: 0/0/2000000 buffer size: 0 vbv_delay: N/A\n",
      "  Stream #0:1(eng): Audio: aac (LC) (mp4a / 0x6134706D), 48000 Hz, stereo, fltp, 256 kb/s (default)\n",
      "    Metadata:\n",
      "      creation_time   : 2021-08-02T19:15:48.000000Z\n",
      "      handler_name    : #Mainconcept MP4 Sound Media Handler\n",
      "      vendor_id       : [0][0][0][0]\n",
      "      encoder         : Lavc58.134.100 aac\n",
      "frame=  502 fps=121 q=-1.0 Lsize=    5517kB time=00:00:20.01 bitrate=2258.5kbits/s dup=0 drop=98 speed=4.83x    \n",
      "video:4869kB audio:632kB subtitle:0kB other streams:0kB global headers:0kB muxing overhead: 0.297865%\n",
      "[libx264 @ 0x555738a763c0] frame I:3     Avg QP:12.09  size: 29924\n",
      "[libx264 @ 0x555738a763c0] frame P:127   Avg QP:12.35  size: 21424\n",
      "[libx264 @ 0x555738a763c0] frame B:372   Avg QP:15.31  size:  5845\n",
      "[libx264 @ 0x555738a763c0] consecutive B-frames:  1.0%  0.4%  0.6% 98.0%\n",
      "[libx264 @ 0x555738a763c0] mb I  I16..4:  9.8% 68.6% 21.6%\n",
      "[libx264 @ 0x555738a763c0] mb P  I16..4:  2.9% 21.7%  4.9%  P16..4: 19.0% 31.1% 19.7%  0.0%  0.0%    skip: 0.8%\n",
      "[libx264 @ 0x555738a763c0] mb B  I16..4:  0.5%  1.9%  0.4%  B16..8: 38.0% 25.3%  8.0%  direct:10.9%  skip:14.9%  L0:42.5% L1:40.7% BI:16.9%\n",
      "[libx264 @ 0x555738a763c0] final ratefactor: 12.37\n",
      "[libx264 @ 0x555738a763c0] 8x8 transform intra:72.0% inter:56.9%\n",
      "[libx264 @ 0x555738a763c0] coded y,uvDC,uvAC intra: 82.4% 96.2% 94.0% inter: 42.6% 56.6% 20.9%\n",
      "[libx264 @ 0x555738a763c0] i16 v,h,dc,p: 32% 16% 21% 31%\n",
      "[libx264 @ 0x555738a763c0] i8 v,h,dc,ddl,ddr,vr,hd,vl,hu: 26% 22% 25%  3%  4%  5%  5%  5%  6%\n",
      "[libx264 @ 0x555738a763c0] i4 v,h,dc,ddl,ddr,vr,hd,vl,hu: 36% 21% 17%  4%  5%  5%  4%  4%  4%\n",
      "[libx264 @ 0x555738a763c0] i8c dc,h,v,p: 53% 21% 19%  8%\n",
      "[libx264 @ 0x555738a763c0] Weighted P-Frames: Y:11.0% UV:4.7%\n",
      "[libx264 @ 0x555738a763c0] ref P L0: 57.7% 12.6% 21.8%  7.0%  0.8%\n",
      "[libx264 @ 0x555738a763c0] ref B L0: 92.7%  6.1%  1.2%\n",
      "[libx264 @ 0x555738a763c0] ref B L1: 98.0%  2.0%\n",
      "[libx264 @ 0x555738a763c0] kb/s:1986.01\n",
      "[aac @ 0x555738a7e080] Qavg: 437.477\n",
      "ffmpeg version 4.4.2-0ubuntu0.22.04.1 Copyright (c) 2000-2021 the FFmpeg developers\n",
      "  built with gcc 11 (Ubuntu 11.2.0-19ubuntu1)\n",
      "  configuration: --prefix=/usr --extra-version=0ubuntu0.22.04.1 --toolchain=hardened --libdir=/usr/lib/x86_64-linux-gnu --incdir=/usr/include/x86_64-linux-gnu --arch=amd64 --enable-gpl --disable-stripping --enable-gnutls --enable-ladspa --enable-libaom --enable-libass --enable-libbluray --enable-libbs2b --enable-libcaca --enable-libcdio --enable-libcodec2 --enable-libdav1d --enable-libflite --enable-libfontconfig --enable-libfreetype --enable-libfribidi --enable-libgme --enable-libgsm --enable-libjack --enable-libmp3lame --enable-libmysofa --enable-libopenjpeg --enable-libopenmpt --enable-libopus --enable-libpulse --enable-librabbitmq --enable-librubberband --enable-libshine --enable-libsnappy --enable-libsoxr --enable-libspeex --enable-libsrt --enable-libssh --enable-libtheora --enable-libtwolame --enable-libvidstab --enable-libvorbis --enable-libvpx --enable-libwebp --enable-libx265 --enable-libxml2 --enable-libxvid --enable-libzimg --enable-libzmq --enable-libzvbi --enable-lv2 --enable-omx --enable-openal --enable-opencl --enable-opengl --enable-sdl2 --enable-pocketsphinx --enable-librsvg --enable-libmfx --enable-libdc1394 --enable-libdrm --enable-libiec61883 --enable-chromaprint --enable-frei0r --enable-libx264 --enable-shared\n",
      "  libavutil      56. 70.100 / 56. 70.100\n",
      "  libavcodec     58.134.100 / 58.134.100\n",
      "  libavformat    58. 76.100 / 58. 76.100\n",
      "  libavdevice    58. 13.100 / 58. 13.100\n",
      "  libavfilter     7.110.100 /  7.110.100\n",
      "  libswscale      5.  9.100 /  5.  9.100\n",
      "  libswresample   3.  9.100 /  3.  9.100\n",
      "  libpostproc    55.  9.100 / 55.  9.100\n",
      "Input #0, mov,mp4,m4a,3gp,3g2,mj2, from 'Films/The_Hill_Gang_Rides_Again.mp4':\n",
      "  Metadata:\n",
      "    major_brand     : mp42\n",
      "    minor_version   : 0\n",
      "    compatible_brands: mp42mp41\n",
      "    creation_time   : 2021-08-02T18:46:51.000000Z\n",
      "  Duration: 00:00:20.04, start: 0.000000, bitrate: 7784 kb/s\n",
      "  Stream #0:0(eng): Video: h264 (Main) (avc1 / 0x31637661), yuv420p, 640x360 [SAR 1:1 DAR 16:9], 7537 kb/s, 25 fps, 25 tbr, 25k tbn, 50 tbc (default)\n",
      "    Metadata:\n",
      "      creation_time   : 2021-08-02T18:46:51.000000Z\n",
      "      handler_name    : ?Mainconcept Video Media Handler\n",
      "      vendor_id       : [0][0][0][0]\n",
      "      encoder         : AVC Coding\n",
      "  Stream #0:1(eng): Audio: aac (LC) (mp4a / 0x6134706D), 44100 Hz, stereo, fltp, 253 kb/s (default)\n",
      "    Metadata:\n",
      "      creation_time   : 2021-08-02T18:46:51.000000Z\n",
      "      handler_name    : #Mainconcept MP4 Sound Media Handler\n",
      "      vendor_id       : [0][0][0][0]\n",
      "Stream mapping:\n",
      "  Stream #0:0 -> #0:0 (h264 (native) -> h264 (libx264))\n",
      "  Stream #0:1 -> #0:1 (aac (native) -> aac (native))\n",
      "Press [q] to stop, [?] for help\n",
      "[libx264 @ 0x5629d4ed1840] using SAR=1/1\n",
      "[libx264 @ 0x5629d4ed1840] using cpu capabilities: MMX2 SSE2Fast SSSE3 SSE4.2 AVX FMA3 BMI2 AVX2\n",
      "[libx264 @ 0x5629d4ed1840] profile High, level 3.0, 4:2:0, 8-bit\n",
      "[libx264 @ 0x5629d4ed1840] 264 - core 163 r3060 5db6aa6 - H.264/MPEG-4 AVC codec - Copyleft 2003-2021 - http://www.videolan.org/x264.html - options: cabac=1 ref=3 deblock=1:0:0 analyse=0x3:0x113 me=hex subme=7 psy=1 psy_rd=1.00:0.00 mixed_ref=1 me_range=16 chroma_me=1 trellis=1 8x8dct=1 cqm=0 deadzone=21,11 fast_pskip=1 chroma_qp_offset=-2 threads=11 lookahead_threads=1 sliced_threads=0 nr=0 decimate=1 interlaced=0 bluray_compat=0 constrained_intra=0 bframes=3 b_pyramid=2 b_adapt=1 b_bias=0 direct=1 weightb=1 open_gop=0 weightp=2 keyint=250 keyint_min=25 scenecut=40 intra_refresh=0 rc_lookahead=40 rc=abr mbtree=1 bitrate=2000 ratetol=1.0 qcomp=0.60 qpmin=0 qpmax=69 qpstep=4 ip_ratio=1.40 aq=1:1.00\n",
      "Output #0, mp4, to 'Films/The_Hill_Gang_Rides_Again_formatOK.mp4':\n",
      "  Metadata:\n",
      "    major_brand     : mp42\n",
      "    minor_version   : 0\n",
      "    compatible_brands: mp42mp41\n",
      "    encoder         : Lavf58.76.100\n",
      "  Stream #0:0(eng): Video: h264 (avc1 / 0x31637661), yuv420p(progressive), 640x360 [SAR 1:1 DAR 16:9], q=2-31, 2000 kb/s, 25 fps, 12800 tbn (default)\n",
      "    Metadata:\n",
      "      creation_time   : 2021-08-02T18:46:51.000000Z\n",
      "      handler_name    : ?Mainconcept Video Media Handler\n",
      "      vendor_id       : [0][0][0][0]\n",
      "      encoder         : Lavc58.134.100 libx264\n",
      "    Side data:\n",
      "      cpb: bitrate max/min/avg: 0/0/2000000 buffer size: 0 vbv_delay: N/A\n",
      "  Stream #0:1(eng): Audio: aac (LC) (mp4a / 0x6134706D), 44100 Hz, stereo, fltp, 256 kb/s (default)\n",
      "    Metadata:\n",
      "      creation_time   : 2021-08-02T18:46:51.000000Z\n",
      "      handler_name    : #Mainconcept MP4 Sound Media Handler\n",
      "      vendor_id       : [0][0][0][0]\n",
      "      encoder         : Lavc58.134.100 aac\n",
      "frame=    2 fps=0.0 q=0.0 size=       0kB time=00:00:00.00 bitrate=N/A speed=   0x    \r"
     ]
    },
    {
     "name": "stdout",
     "output_type": "stream",
     "text": [
      "Converted Cosmos_War_of_the_Planets.mp4 to Films/Cosmos_War_of_the_Planets_formatOK.mp4\n"
     ]
    },
    {
     "name": "stderr",
     "output_type": "stream",
     "text": [
      "frame=  500 fps=100 q=-1.0 Lsize=    5169kB time=00:00:19.99 bitrate=2118.1kbits/s speed=3.99x    \n",
      "video:4842kB audio:309kB subtitle:0kB other streams:0kB global headers:0kB muxing overhead: 0.344965%\n",
      "[libx264 @ 0x5629d4ed1840] frame I:4     Avg QP: 9.06  size: 31898\n",
      "[libx264 @ 0x5629d4ed1840] frame P:130   Avg QP: 8.96  size: 24482\n",
      "[libx264 @ 0x5629d4ed1840] frame B:366   Avg QP:12.56  size:  4502\n",
      "[libx264 @ 0x5629d4ed1840] consecutive B-frames:  2.0%  0.8%  1.2% 96.0%\n",
      "[libx264 @ 0x5629d4ed1840] mb I  I16..4:  7.9% 51.5% 40.5%\n",
      "[libx264 @ 0x5629d4ed1840] mb P  I16..4:  1.6% 22.1%  8.9%  P16..4: 17.5% 26.2% 21.5%  0.0%  0.0%    skip: 2.2%\n",
      "[libx264 @ 0x5629d4ed1840] mb B  I16..4:  0.1%  0.7%  0.2%  B16..8: 38.5% 20.1%  9.0%  direct: 7.8%  skip:23.5%  L0:42.9% L1:41.5% BI:15.6%\n",
      "[libx264 @ 0x5629d4ed1840] final ratefactor: 9.76\n",
      "[libx264 @ 0x5629d4ed1840] 8x8 transform intra:66.2% inter:48.5%\n",
      "[libx264 @ 0x5629d4ed1840] coded y,uvDC,uvAC intra: 95.1% 86.9% 83.0% inter: 36.5% 39.4% 13.5%\n",
      "[libx264 @ 0x5629d4ed1840] i16 v,h,dc,p: 34% 14% 17% 35%\n",
      "[libx264 @ 0x5629d4ed1840] i8 v,h,dc,ddl,ddr,vr,hd,vl,hu: 35% 18% 12%  4%  5%  7%  6%  6%  7%\n",
      "[libx264 @ 0x5629d4ed1840] i4 v,h,dc,ddl,ddr,vr,hd,vl,hu: 34% 19% 10%  5%  7%  7%  6%  5%  5%\n",
      "[libx264 @ 0x5629d4ed1840] i8c dc,h,v,p: 54% 14% 25%  7%\n",
      "[libx264 @ 0x5629d4ed1840] Weighted P-Frames: Y:12.3% UV:9.2%\n",
      "[libx264 @ 0x5629d4ed1840] ref P L0: 70.7% 10.1% 14.9%  4.1%  0.3%\n",
      "[libx264 @ 0x5629d4ed1840] ref B L0: 94.7%  4.6%  0.7%\n",
      "[libx264 @ 0x5629d4ed1840] ref B L1: 98.2%  1.8%\n",
      "[libx264 @ 0x5629d4ed1840] kb/s:1983.12\n",
      "[aac @ 0x5629d4ec68c0] Qavg: 65492.914\n",
      "ffmpeg version 4.4.2-0ubuntu0.22.04.1 Copyright (c) 2000-2021 the FFmpeg developers\n",
      "  built with gcc 11 (Ubuntu 11.2.0-19ubuntu1)\n",
      "  configuration: --prefix=/usr --extra-version=0ubuntu0.22.04.1 --toolchain=hardened --libdir=/usr/lib/x86_64-linux-gnu --incdir=/usr/include/x86_64-linux-gnu --arch=amd64 --enable-gpl --disable-stripping --enable-gnutls --enable-ladspa --enable-libaom --enable-libass --enable-libbluray --enable-libbs2b --enable-libcaca --enable-libcdio --enable-libcodec2 --enable-libdav1d --enable-libflite --enable-libfontconfig --enable-libfreetype --enable-libfribidi --enable-libgme --enable-libgsm --enable-libjack --enable-libmp3lame --enable-libmysofa --enable-libopenjpeg --enable-libopenmpt --enable-libopus --enable-libpulse --enable-librabbitmq --enable-librubberband --enable-libshine --enable-libsnappy --enable-libsoxr --enable-libspeex --enable-libsrt --enable-libssh --enable-libtheora --enable-libtwolame --enable-libvidstab --enable-libvorbis --enable-libvpx --enable-libwebp --enable-libx265 --enable-libxml2 --enable-libxvid --enable-libzimg --enable-libzmq --enable-libzvbi --enable-lv2 --enable-omx --enable-openal --enable-opencl --enable-opengl --enable-sdl2 --enable-pocketsphinx --enable-librsvg --enable-libmfx --enable-libdc1394 --enable-libdrm --enable-libiec61883 --enable-chromaprint --enable-frei0r --enable-libx264 --enable-shared\n",
      "  libavutil      56. 70.100 / 56. 70.100\n",
      "  libavcodec     58.134.100 / 58.134.100\n",
      "  libavformat    58. 76.100 / 58. 76.100\n",
      "  libavdevice    58. 13.100 / 58. 13.100\n",
      "  libavfilter     7.110.100 /  7.110.100\n",
      "  libswscale      5.  9.100 /  5.  9.100\n",
      "  libswresample   3.  9.100 /  3.  9.100\n",
      "  libpostproc    55.  9.100 / 55.  9.100\n",
      "Guessed Channel Layout for Input Stream #0.1 : stereo\n",
      "Input #0, avi, from 'Films/The_Gun_and_the_Pulpit.avi':\n",
      "  Duration: 00:00:20.00, start: 0.000000, bitrate: 88809 kb/s\n",
      "  Stream #0:0: Video: rawvideo (IYUV / 0x56555949), yuv420p, 720x404, 87438 kb/s, 25 fps, 25 tbr, 25 tbn, 25 tbc\n",
      "  Stream #0:1: Audio: pcm_s16le ([1][0][0][0] / 0x0001), 48000 Hz, stereo, s16, 1536 kb/s\n",
      "Stream mapping:\n",
      "  Stream #0:0 -> #0:0 (rawvideo (native) -> h264 (libx264))\n",
      "  Stream #0:1 -> #0:1 (pcm_s16le (native) -> aac (native))\n",
      "Press [q] to stop, [?] for help\n",
      "[swscaler @ 0x55a8a9c95cc0] Warning: data is not aligned! This can lead to a speed loss\n",
      "[libx264 @ 0x55a8a9c88700] using cpu capabilities: MMX2 SSE2Fast SSSE3 SSE4.2 AVX FMA3 BMI2 AVX2\n",
      "[libx264 @ 0x55a8a9c88700] profile High, level 3.0, 4:2:0, 8-bit\n",
      "[libx264 @ 0x55a8a9c88700] 264 - core 163 r3060 5db6aa6 - H.264/MPEG-4 AVC codec - Copyleft 2003-2021 - http://www.videolan.org/x264.html - options: cabac=1 ref=3 deblock=1:0:0 analyse=0x3:0x113 me=hex subme=7 psy=1 psy_rd=1.00:0.00 mixed_ref=1 me_range=16 chroma_me=1 trellis=1 8x8dct=1 cqm=0 deadzone=21,11 fast_pskip=1 chroma_qp_offset=-2 threads=11 lookahead_threads=1 sliced_threads=0 nr=0 decimate=1 interlaced=0 bluray_compat=0 constrained_intra=0 bframes=3 b_pyramid=2 b_adapt=1 b_bias=0 direct=1 weightb=1 open_gop=0 weightp=2 keyint=250 keyint_min=25 scenecut=40 intra_refresh=0 rc_lookahead=40 rc=abr mbtree=1 bitrate=2000 ratetol=1.0 qcomp=0.60 qpmin=0 qpmax=69 qpstep=4 ip_ratio=1.40 aq=1:1.00\n",
      "Output #0, mp4, to 'Films/The_Gun_and_the_Pulpit_formatOK.mp4':\n",
      "  Metadata:\n",
      "    encoder         : Lavf58.76.100\n",
      "  Stream #0:0: Video: h264 (avc1 / 0x31637661), yuv420p(tv, progressive), 640x360, q=2-31, 2000 kb/s, 25 fps, 12800 tbn\n",
      "    Metadata:\n",
      "      encoder         : Lavc58.134.100 libx264\n",
      "    Side data:\n",
      "      cpb: bitrate max/min/avg: 0/0/2000000 buffer size: 0 vbv_delay: N/A\n",
      "  Stream #0:1: Audio: aac (LC) (mp4a / 0x6134706D), 48000 Hz, stereo, fltp, 256 kb/s\n",
      "    Metadata:\n",
      "      encoder         : Lavc58.134.100 aac\n",
      "frame=   17 fps=0.0 q=0.0 size=       0kB time=00:00:00.00 bitrate=N/A speed=   0x    \r"
     ]
    },
    {
     "name": "stdout",
     "output_type": "stream",
     "text": [
      "Converted The_Hill_Gang_Rides_Again.mp4 to Films/The_Hill_Gang_Rides_Again_formatOK.mp4\n"
     ]
    },
    {
     "name": "stderr",
     "output_type": "stream",
     "text": [
      "frame=  500 fps=102 q=-1.0 Lsize=    5320kB time=00:00:19.98 bitrate=2180.2kbits/s speed=4.07x    \n",
      "video:4674kB audio:630kB subtitle:0kB other streams:0kB global headers:0kB muxing overhead: 0.301589%\n",
      "[libx264 @ 0x55a8a9c88700] frame I:17    Avg QP:13.01  size: 24550\n",
      "[libx264 @ 0x55a8a9c88700] frame P:156   Avg QP:15.14  size: 15209\n",
      "[libx264 @ 0x55a8a9c88700] frame B:327   Avg QP:17.39  size:  6101\n",
      "[libx264 @ 0x55a8a9c88700] consecutive B-frames: 10.0%  5.6%  8.4% 76.0%\n",
      "[libx264 @ 0x55a8a9c88700] mb I  I16..4:  9.7% 51.6% 38.7%\n",
      "[libx264 @ 0x55a8a9c88700] mb P  I16..4:  3.3% 28.8% 12.4%  P16..4: 18.9% 22.4% 11.3%  0.0%  0.0%    skip: 2.9%\n",
      "[libx264 @ 0x55a8a9c88700] mb B  I16..4:  0.6%  5.6%  3.1%  B16..8: 37.9% 21.5%  6.1%  direct: 5.7%  skip:19.5%  L0:48.1% L1:40.3% BI:11.6%\n",
      "[libx264 @ 0x55a8a9c88700] final ratefactor: 12.90\n",
      "[libx264 @ 0x55a8a9c88700] 8x8 transform intra:61.6% inter:60.2%\n",
      "[libx264 @ 0x55a8a9c88700] coded y,uvDC,uvAC intra: 84.4% 85.0% 59.2% inter: 37.0% 33.1% 6.2%\n",
      "[libx264 @ 0x55a8a9c88700] i16 v,h,dc,p: 71%  9%  5% 15%\n",
      "[libx264 @ 0x55a8a9c88700] i8 v,h,dc,ddl,ddr,vr,hd,vl,hu: 37% 21%  9%  4%  5%  7%  6%  7%  6%\n",
      "[libx264 @ 0x55a8a9c88700] i4 v,h,dc,ddl,ddr,vr,hd,vl,hu: 38% 23%  7%  4%  6%  6%  7%  5%  4%\n",
      "[libx264 @ 0x55a8a9c88700] i8c dc,h,v,p: 50% 16% 27%  7%\n",
      "[libx264 @ 0x55a8a9c88700] Weighted P-Frames: Y:4.5% UV:1.9%\n",
      "[libx264 @ 0x55a8a9c88700] ref P L0: 71.6% 10.9% 13.9%  3.6%  0.0%\n",
      "[libx264 @ 0x55a8a9c88700] ref B L0: 94.3%  4.9%  0.8%\n",
      "[libx264 @ 0x55a8a9c88700] ref B L1: 98.3%  1.7%\n",
      "[libx264 @ 0x55a8a9c88700] kb/s:1914.00\n",
      "[aac @ 0x55a8a9c8b840] Qavg: 254.645\n",
      "ffmpeg version 4.4.2-0ubuntu0.22.04.1 Copyright (c) 2000-2021 the FFmpeg developers\n",
      "  built with gcc 11 (Ubuntu 11.2.0-19ubuntu1)\n",
      "  configuration: --prefix=/usr --extra-version=0ubuntu0.22.04.1 --toolchain=hardened --libdir=/usr/lib/x86_64-linux-gnu --incdir=/usr/include/x86_64-linux-gnu --arch=amd64 --enable-gpl --disable-stripping --enable-gnutls --enable-ladspa --enable-libaom --enable-libass --enable-libbluray --enable-libbs2b --enable-libcaca --enable-libcdio --enable-libcodec2 --enable-libdav1d --enable-libflite --enable-libfontconfig --enable-libfreetype --enable-libfribidi --enable-libgme --enable-libgsm --enable-libjack --enable-libmp3lame --enable-libmysofa --enable-libopenjpeg --enable-libopenmpt --enable-libopus --enable-libpulse --enable-librabbitmq --enable-librubberband --enable-libshine --enable-libsnappy --enable-libsoxr --enable-libspeex --enable-libsrt --enable-libssh --enable-libtheora --enable-libtwolame --enable-libvidstab --enable-libvorbis --enable-libvpx --enable-libwebp --enable-libx265 --enable-libxml2 --enable-libxvid --enable-libzimg --enable-libzmq --enable-libzvbi --enable-lv2 --enable-omx --enable-openal --enable-opencl --enable-opengl --enable-sdl2 --enable-pocketsphinx --enable-librsvg --enable-libmfx --enable-libdc1394 --enable-libdrm --enable-libiec61883 --enable-chromaprint --enable-frei0r --enable-libx264 --enable-shared\n",
      "  libavutil      56. 70.100 / 56. 70.100\n",
      "  libavcodec     58.134.100 / 58.134.100\n",
      "  libavformat    58. 76.100 / 58. 76.100\n",
      "  libavdevice    58. 13.100 / 58. 13.100\n",
      "  libavfilter     7.110.100 /  7.110.100\n",
      "  libswscale      5.  9.100 /  5.  9.100\n",
      "  libswresample   3.  9.100 /  3.  9.100\n",
      "  libpostproc    55.  9.100 / 55.  9.100\n",
      "Input #0, mov,mp4,m4a,3gp,3g2,mj2, from 'Films/Voyage_to_the_Planet_of_Prehistoric_Women.mp4':\n",
      "  Metadata:\n",
      "    major_brand     : mp42\n",
      "    minor_version   : 0\n",
      "    compatible_brands: mp42mp41\n",
      "    creation_time   : 2021-08-02T19:26:10.000000Z\n",
      "  Duration: 00:00:20.09, start: 0.000000, bitrate: 8337 kb/s\n",
      "  Stream #0:0(eng): Video: hevc (Main) (hvc1 / 0x31637668), yuv420p(tv, bt709), 640x360 [SAR 1:1 DAR 16:9], 8038 kb/s, 29.97 fps, 29.97 tbr, 30k tbn, 29.97 tbc (default)\n",
      "    Metadata:\n",
      "      creation_time   : 2021-08-02T19:26:10.000000Z\n",
      "      handler_name    : ?Mainconcept Video Media Handler\n",
      "      vendor_id       : [0][0][0][0]\n",
      "      encoder         : HEVC Coding\n",
      "  Stream #0:1(eng): Audio: mp3 (mp4a / 0x6134706D), 48000 Hz, stereo, fltp, 320 kb/s (default)\n",
      "    Metadata:\n",
      "      creation_time   : 2021-08-02T19:26:10.000000Z\n",
      "      handler_name    : #Mainconcept MP4 Sound Media Handler\n",
      "      vendor_id       : [0][0][0][0]\n",
      "Stream mapping:\n",
      "  Stream #0:0 -> #0:0 (hevc (native) -> h264 (libx264))\n",
      "  Stream #0:1 -> #0:1 (mp3 (mp3float) -> aac (native))\n",
      "Press [q] to stop, [?] for help\n",
      "[libx264 @ 0x559b6f11c880] using SAR=1/1\n",
      "[libx264 @ 0x559b6f11c880] using cpu capabilities: MMX2 SSE2Fast SSSE3 SSE4.2 AVX FMA3 BMI2 AVX2\n",
      "[libx264 @ 0x559b6f11c880] profile High, level 3.0, 4:2:0, 8-bit\n",
      "[libx264 @ 0x559b6f11c880] 264 - core 163 r3060 5db6aa6 - H.264/MPEG-4 AVC codec - Copyleft 2003-2021 - http://www.videolan.org/x264.html - options: cabac=1 ref=3 deblock=1:0:0 analyse=0x3:0x113 me=hex subme=7 psy=1 psy_rd=1.00:0.00 mixed_ref=1 me_range=16 chroma_me=1 trellis=1 8x8dct=1 cqm=0 deadzone=21,11 fast_pskip=1 chroma_qp_offset=-2 threads=11 lookahead_threads=1 sliced_threads=0 nr=0 decimate=1 interlaced=0 bluray_compat=0 constrained_intra=0 bframes=3 b_pyramid=2 b_adapt=1 b_bias=0 direct=1 weightb=1 open_gop=0 weightp=2 keyint=250 keyint_min=25 scenecut=40 intra_refresh=0 rc_lookahead=40 rc=abr mbtree=1 bitrate=2000 ratetol=1.0 qcomp=0.60 qpmin=0 qpmax=69 qpstep=4 ip_ratio=1.40 aq=1:1.00\n",
      "Output #0, mp4, to 'Films/Voyage_to_the_Planet_of_Prehistoric_Women_formatOK.mp4':\n",
      "  Metadata:\n",
      "    major_brand     : mp42\n",
      "    minor_version   : 0\n",
      "    compatible_brands: mp42mp41\n",
      "    encoder         : Lavf58.76.100\n",
      "  Stream #0:0(eng): Video: h264 (avc1 / 0x31637661), yuv420p(tv, bt709, progressive), 640x360 [SAR 1:1 DAR 16:9], q=2-31, 2000 kb/s, 25 fps, 12800 tbn (default)\n",
      "    Metadata:\n",
      "      creation_time   : 2021-08-02T19:26:10.000000Z\n",
      "      handler_name    : ?Mainconcept Video Media Handler\n",
      "      vendor_id       : [0][0][0][0]\n",
      "      encoder         : Lavc58.134.100 libx264\n",
      "    Side data:\n",
      "      cpb: bitrate max/min/avg: 0/0/2000000 buffer size: 0 vbv_delay: N/A\n",
      "  Stream #0:1(eng): Audio: aac (LC) (mp4a / 0x6134706D), 48000 Hz, stereo, fltp, 256 kb/s (default)\n",
      "    Metadata:\n",
      "      creation_time   : 2021-08-02T19:26:10.000000Z\n",
      "      handler_name    : #Mainconcept MP4 Sound Media Handler\n",
      "      vendor_id       : [0][0][0][0]\n",
      "      encoder         : Lavc58.134.100 aac\n",
      "frame=    2 fps=0.0 q=0.0 size=       0kB time=00:00:00.00 bitrate=N/A speed=   0x    \r"
     ]
    },
    {
     "name": "stdout",
     "output_type": "stream",
     "text": [
      "Converted The_Gun_and_the_Pulpit.avi to Films/The_Gun_and_the_Pulpit_formatOK.mp4\n"
     ]
    },
    {
     "name": "stderr",
     "output_type": "stream",
     "text": [
      "frame=  502 fps= 99 q=-1.0 Lsize=    5307kB time=00:00:20.03 bitrate=2170.2kbits/s dup=0 drop=98 speed=3.96x    \n",
      "video:4663kB audio:628kB subtitle:0kB other streams:0kB global headers:0kB muxing overhead: 0.309818%\n",
      "[libx264 @ 0x559b6f11c880] frame I:5     Avg QP: 7.69  size: 38267\n",
      "[libx264 @ 0x559b6f11c880] frame P:129   Avg QP:10.61  size: 21343\n",
      "[libx264 @ 0x559b6f11c880] frame B:368   Avg QP:14.52  size:  4971\n",
      "[libx264 @ 0x559b6f11c880] consecutive B-frames:  2.0%  0.0%  2.4% 95.6%\n",
      "[libx264 @ 0x559b6f11c880] mb I  I16..4: 16.0% 48.1% 36.0%\n",
      "[libx264 @ 0x559b6f11c880] mb P  I16..4:  3.1% 18.1%  5.9%  P16..4: 19.6% 24.7% 17.8%  0.0%  0.0%    skip:10.8%\n",
      "[libx264 @ 0x559b6f11c880] mb B  I16..4:  0.1%  0.6%  0.2%  B16..8: 39.9% 19.0%  7.5%  direct: 6.9%  skip:25.7%  L0:46.0% L1:39.8% BI:14.2%\n",
      "[libx264 @ 0x559b6f11c880] final ratefactor: 11.60\n",
      "[libx264 @ 0x559b6f11c880] 8x8 transform intra:64.6% inter:57.5%\n",
      "[libx264 @ 0x559b6f11c880] coded y,uvDC,uvAC intra: 82.1% 94.0% 93.4% inter: 30.7% 51.6% 18.7%\n",
      "[libx264 @ 0x559b6f11c880] i16 v,h,dc,p: 63% 12%  9% 16%\n",
      "[libx264 @ 0x559b6f11c880] i8 v,h,dc,ddl,ddr,vr,hd,vl,hu: 24% 17% 18%  5%  6%  7%  6%  9%  8%\n",
      "[libx264 @ 0x559b6f11c880] i4 v,h,dc,ddl,ddr,vr,hd,vl,hu: 28% 17% 13%  6%  9%  8%  6%  7%  6%\n",
      "[libx264 @ 0x559b6f11c880] i8c dc,h,v,p: 49% 14% 23% 13%\n",
      "[libx264 @ 0x559b6f11c880] Weighted P-Frames: Y:14.7% UV:10.9%\n",
      "[libx264 @ 0x559b6f11c880] ref P L0: 65.3% 13.5% 15.2%  5.2%  0.7%\n",
      "[libx264 @ 0x559b6f11c880] ref B L0: 94.2%  5.0%  0.8%\n",
      "[libx264 @ 0x559b6f11c880] ref B L1: 98.0%  2.0%\n",
      "[libx264 @ 0x559b6f11c880] kb/s:1901.91\n",
      "[aac @ 0x559b6f11df00] Qavg: 248.531\n",
      "ffmpeg version 4.4.2-0ubuntu0.22.04.1 Copyright (c) 2000-2021 the FFmpeg developers\n",
      "  built with gcc 11 (Ubuntu 11.2.0-19ubuntu1)\n",
      "  configuration: --prefix=/usr --extra-version=0ubuntu0.22.04.1 --toolchain=hardened --libdir=/usr/lib/x86_64-linux-gnu --incdir=/usr/include/x86_64-linux-gnu --arch=amd64 --enable-gpl --disable-stripping --enable-gnutls --enable-ladspa --enable-libaom --enable-libass --enable-libbluray --enable-libbs2b --enable-libcaca --enable-libcdio --enable-libcodec2 --enable-libdav1d --enable-libflite --enable-libfontconfig --enable-libfreetype --enable-libfribidi --enable-libgme --enable-libgsm --enable-libjack --enable-libmp3lame --enable-libmysofa --enable-libopenjpeg --enable-libopenmpt --enable-libopus --enable-libpulse --enable-librabbitmq --enable-librubberband --enable-libshine --enable-libsnappy --enable-libsoxr --enable-libspeex --enable-libsrt --enable-libssh --enable-libtheora --enable-libtwolame --enable-libvidstab --enable-libvorbis --enable-libvpx --enable-libwebp --enable-libx265 --enable-libxml2 --enable-libxvid --enable-libzimg --enable-libzmq --enable-libzvbi --enable-lv2 --enable-omx --enable-openal --enable-opencl --enable-opengl --enable-sdl2 --enable-pocketsphinx --enable-librsvg --enable-libmfx --enable-libdc1394 --enable-libdrm --enable-libiec61883 --enable-chromaprint --enable-frei0r --enable-libx264 --enable-shared\n",
      "  libavutil      56. 70.100 / 56. 70.100\n",
      "  libavcodec     58.134.100 / 58.134.100\n",
      "  libavformat    58. 76.100 / 58. 76.100\n",
      "  libavdevice    58. 13.100 / 58. 13.100\n",
      "  libavfilter     7.110.100 /  7.110.100\n",
      "  libswscale      5.  9.100 /  5.  9.100\n",
      "  libswresample   3.  9.100 /  3.  9.100\n",
      "  libpostproc    55.  9.100 / 55.  9.100\n",
      "Input #0, mov,mp4,m4a,3gp,3g2,mj2, from 'Films/Last_man_on_earth_1964.mov':\n",
      "  Metadata:\n",
      "    major_brand     : qt  \n",
      "    minor_version   : 537199360\n",
      "    compatible_brands: qt  \n",
      "    creation_time   : 2021-08-02T18:38:19.000000Z\n",
      "  Duration: 00:00:20.02, start: 0.000000, bitrate: 11240 kb/s\n",
      "  Stream #0:0(eng): Video: prores (LT) (apcs / 0x73637061), yuv422p10le(tv, smpte170m/smpte170m/bt709, progressive), 640x360, 9285 kb/s, SAR 1:1 DAR 16:9, 23.98 fps, 23.98 tbr, 24k tbn, 24k tbc (default)\n",
      "    Metadata:\n",
      "      creation_time   : 2021-08-02T18:38:19.000000Z\n",
      "      handler_name    : Apple Video Media Handler\n",
      "      vendor_id       : appl\n",
      "      encoder         : Apple ProRes 422 LT\n",
      "      timecode        : 00:51:43:11\n",
      "  Stream #0:1(eng): Audio: pcm_s16le (sowt / 0x74776F73), 48000 Hz, stereo, s16, 1536 kb/s (default)\n",
      "    Metadata:\n",
      "      creation_time   : 2021-08-02T18:38:19.000000Z\n",
      "      handler_name    : Apple Sound Media Handler\n",
      "      vendor_id       :     \n",
      "      timecode        : 00:51:43:11\n",
      "  Stream #0:2(eng): Data: none (tmcd / 0x64636D74), 0 kb/s (default)\n",
      "    Metadata:\n",
      "      creation_time   : 2021-08-02T18:38:19.000000Z\n",
      "      handler_name    : Time Code Media Handler\n",
      "      timecode        : 00:51:43:11\n",
      "Stream mapping:\n",
      "  Stream #0:0 -> #0:0 (prores (native) -> h264 (libx264))\n",
      "  Stream #0:1 -> #0:1 (pcm_s16le (native) -> aac (native))\n",
      "Press [q] to stop, [?] for help\n",
      "[libx264 @ 0x5555b55b9e00] using SAR=1/1\n",
      "[libx264 @ 0x5555b55b9e00] using cpu capabilities: MMX2 SSE2Fast SSSE3 SSE4.2 AVX FMA3 BMI2 AVX2\n",
      "[libx264 @ 0x5555b55b9e00] profile High 4:2:2, level 3.0, 4:2:2, 10-bit\n",
      "[libx264 @ 0x5555b55b9e00] 264 - core 163 r3060 5db6aa6 - H.264/MPEG-4 AVC codec - Copyleft 2003-2021 - http://www.videolan.org/x264.html - options: cabac=1 ref=3 deblock=1:0:0 analyse=0x3:0x113 me=hex subme=7 psy=1 psy_rd=1.00:0.00 mixed_ref=1 me_range=16 chroma_me=1 trellis=1 8x8dct=1 cqm=0 deadzone=21,11 fast_pskip=1 chroma_qp_offset=-2 threads=11 lookahead_threads=1 sliced_threads=0 nr=0 decimate=1 interlaced=0 bluray_compat=0 constrained_intra=0 bframes=3 b_pyramid=2 b_adapt=1 b_bias=0 direct=1 weightb=1 open_gop=0 weightp=2 keyint=250 keyint_min=25 scenecut=40 intra_refresh=0 rc_lookahead=40 rc=abr mbtree=1 bitrate=2000 ratetol=1.0 qcomp=0.60 qpmin=0 qpmax=81 qpstep=4 ip_ratio=1.40 aq=1:1.00\n",
      "[mp4 @ 0x5555b55b8c00] Application provided duration: -9223372036854775808 / timestamp: -9223372036854775808 is out of range for mov/mp4 format\n",
      "[mp4 @ 0x5555b55b8c00] pts has no value\n",
      "Output #0, mp4, to 'Films/Last_man_on_earth_1964_formatOK.mp4':\n",
      "  Metadata:\n",
      "    major_brand     : qt  \n",
      "    minor_version   : 537199360\n",
      "    compatible_brands: qt  \n",
      "    encoder         : Lavf58.76.100\n",
      "  Stream #0:0(eng): Video: h264 (avc1 / 0x31637661), yuv422p10le(tv, smpte170m/smpte170m/bt709, progressive), 640x360 [SAR 1:1 DAR 16:9], q=2-31, 2000 kb/s, 0.04 fps, 12800 tbn (default)\n",
      "    Metadata:\n",
      "      creation_time   : 2021-08-02T18:38:19.000000Z\n",
      "      handler_name    : Apple Video Media Handler\n",
      "      vendor_id       : appl\n",
      "      timecode        : 00:51:43:11\n",
      "      encoder         : Lavc58.134.100 libx264\n",
      "    Side data:\n",
      "      cpb: bitrate max/min/avg: 0/0/2000000 buffer size: 0 vbv_delay: N/A\n",
      "  Stream #0:1(eng): Audio: aac (LC) (mp4a / 0x6134706D), 48000 Hz, stereo, fltp, 256 kb/s (default)\n",
      "    Metadata:\n",
      "      creation_time   : 2021-08-02T18:38:19.000000Z\n",
      "      handler_name    : Apple Sound Media Handler\n",
      "      vendor_id       :     \n",
      "      timecode        : 00:51:43:11\n",
      "      encoder         : Lavc58.134.100 aac\n",
      "frame=   16 fps=0.0 q=0.0 size=       0kB time=00:00:00.00 bitrate=N/A dup=1 drop=0 speed=   0x    \r"
     ]
    },
    {
     "name": "stdout",
     "output_type": "stream",
     "text": [
      "Converted Voyage_to_the_Planet_of_Prehistoric_Women.mp4 to Films/Voyage_to_the_Planet_of_Prehistoric_Women_formatOK.mp4\n"
     ]
    },
    {
     "name": "stderr",
     "output_type": "stream",
     "text": [
      "frame=  490 fps= 96 q=29.0 size=    4864kB time=00:00:18.94 bitrate=2103.4kbits/s dup=20 drop=0 speed=3.73x    \r"
     ]
    },
    {
     "name": "stdout",
     "output_type": "stream",
     "text": [
      "Converted Last_man_on_earth_1964.mov to Films/Last_man_on_earth_1964_formatOK.mp4\n"
     ]
    },
    {
     "name": "stderr",
     "output_type": "stream",
     "text": [
      "frame=  500 fps= 88 q=-1.0 Lsize=    5713kB time=00:00:20.01 bitrate=2338.6kbits/s dup=20 drop=0 speed=3.51x    \n",
      "video:5100kB audio:596kB subtitle:0kB other streams:0kB global headers:0kB muxing overhead: 0.294285%\n",
      "[libx264 @ 0x5555b55b9e00] frame I:6     Avg QP:18.16  size: 35486\n",
      "[libx264 @ 0x5555b55b9e00] frame P:129   Avg QP:20.44  size: 22991\n",
      "[libx264 @ 0x5555b55b9e00] frame B:365   Avg QP:23.68  size:  5596\n",
      "[libx264 @ 0x5555b55b9e00] consecutive B-frames:  1.6%  1.6%  4.8% 92.0%\n",
      "[libx264 @ 0x5555b55b9e00] mb I  I16..4: 18.8% 67.7% 13.4%\n",
      "[libx264 @ 0x5555b55b9e00] mb P  I16..4:  0.8% 35.0%  1.6%  P16..4: 22.2% 22.7% 15.0%  0.0%  0.0%    skip: 2.9%\n",
      "[libx264 @ 0x5555b55b9e00] mb B  I16..4:  0.1%  6.8%  0.1%  B16..8: 35.8% 18.7%  6.5%  direct: 7.0%  skip:25.0%  L0:40.1% L1:32.8% BI:27.1%\n",
      "[libx264 @ 0x5555b55b9e00] final ratefactor: 10.81\n",
      "[libx264 @ 0x5555b55b9e00] 8x8 transform intra:92.7% inter:63.5%\n",
      "[libx264 @ 0x5555b55b9e00] coded y,uvDC,uvAC intra: 81.3% 0.0% 0.0% inter: 35.9% 0.0% 0.0%\n",
      "[libx264 @ 0x5555b55b9e00] i16 v,h,dc,p: 56% 27%  9%  8%\n",
      "[libx264 @ 0x5555b55b9e00] i8 v,h,dc,ddl,ddr,vr,hd,vl,hu: 23% 16% 39%  3%  3%  3%  3%  4%  5%\n",
      "[libx264 @ 0x5555b55b9e00] i4 v,h,dc,ddl,ddr,vr,hd,vl,hu: 41% 15%  9%  5%  6%  7%  5%  7%  7%\n",
      "[libx264 @ 0x5555b55b9e00] i8c dc,h,v,p: 100%  0%  0%  0%\n",
      "[libx264 @ 0x5555b55b9e00] Weighted P-Frames: Y:4.7% UV:0.0%\n",
      "[libx264 @ 0x5555b55b9e00] ref P L0: 70.7% 21.9%  7.1%  0.3%\n",
      "[libx264 @ 0x5555b55b9e00] ref B L0: 92.9%  6.0%  1.1%\n",
      "[libx264 @ 0x5555b55b9e00] ref B L1: 97.9%  2.1%\n",
      "[libx264 @ 0x5555b55b9e00] kb/s:2088.47\n",
      "[aac @ 0x5555b55baac0] Qavg: 60102.828\n"
     ]
    }
   ],
   "source": [
    "for root, _, files in os.walk(extracted_dir):\n",
    "    for file in files:\n",
    "        if file.lower().endswith(\".avi\") or file.lower().endswith(\".mov\") or file.lower().endswith(\".mp4\"):\n",
    "            input_path = os.path.join(root, file)\n",
    "            output_path = os.path.join(root, os.path.splitext(file)[0] + \"_formatOK.mp4\")\n",
    "\n",
    "            # Use ffmpeg to convert the film\n",
    "            cmd = [\n",
    "                \"ffmpeg\",\n",
    "                \"-i\", input_path,\n",
    "                \"-c:v\", \"libx264\",\n",
    "                \"-c:a\", \"aac\",\n",
    "                \"-r\", \"25\",\n",
    "                \"-s\", \"640x360\",\n",
    "                \"-b:v\", \"2M\",  # Adjust as needed\n",
    "                \"-b:a\", \"256k\",\n",
    "                \"-strict\", \"experimental\",\n",
    "                output_path\n",
    "            ]\n",
    "\n",
    "            subprocess.run(cmd)\n",
    "\n",
    "            print(f\"Converted {file} to {output_path}\")"
   ]
  }
 ],
 "metadata": {
  "kernelspec": {
   "display_name": "Python 3 (ipykernel)",
   "language": "python",
   "name": "python3"
  },
  "language_info": {
   "codemirror_mode": {
    "name": "ipython",
    "version": 3
   },
   "file_extension": ".py",
   "mimetype": "text/x-python",
   "name": "python",
   "nbconvert_exporter": "python",
   "pygments_lexer": "ipython3",
   "version": "3.11.5"
  }
 },
 "nbformat": 4,
 "nbformat_minor": 5
}
